<svg xmlns="http://www.w3.org/2000/svg" version="1.1" xmlns:xlink="http://www.w3.org/1999/xlink" xmlns:svgjs="http://svgjs.dev/svgjs" width="1500" height="1500" viewBox="0 0 1500 1500"><rect width="1500" height="1500" fill="#ebe3d6"></rect><g transform="matrix(0.6666666666666666,0,0,0.6666666666666666,249.39393939393938,435.99032258064517)"><svg viewBox="0 0 396 248" data-background-color="#ebe3d6" preserveAspectRatio="xMidYMid meet" height="939" width="1500" xmlns="http://www.w3.org/2000/svg" xmlns:xlink="http://www.w3.org/1999/xlink"><g id="tight-bounds" transform="matrix(1,0,0,1,0.2400000000000091,0.4000000000000057)"><svg viewBox="0 0 395.52 247.2" height="247.2" width="395.52"><g><svg></svg></g><g><svg viewBox="0 0 395.52 247.2" height="247.2" width="395.52"><g transform="matrix(1,0,0,1,75.54432,52.94663061405129)"><svg viewBox="0 0 244.43135999999998 141.30673877189741" height="141.30673877189741" width="244.43135999999998"><g><svg viewBox="0 0 244.43135999999998 141.30673877189741" height="141.30673877189741" width="244.43135999999998"><g><svg viewBox="0 0 244.43135999999998 141.30673877189741" height="141.30673877189741" width="244.43135999999998"><g><svg viewBox="0 0 244.43135999999998 141.30673877189741" height="141.30673877189741" width="244.43135999999998"><g id="textblocktransform"><svg viewBox="0 0 244.43135999999998 141.30673877189741" height="141.30673877189741" width="244.43135999999998" id="textblock"><g><svg viewBox="0 0 244.43135999999998 83.924930472103" height="83.924930472103" width="244.43135999999998"><g transform="matrix(1,0,0,1,0,0)"><svg width="244.43135999999998" viewBox="3 -35.25 104.84 36" height="83.924930472103" data-palette-color="#505050"><path d="M10.65-16.55L10.65-16.55 10.65-20.25Q13.15-20.25 14.55-21.75 15.95-23.25 15.95-25.95L15.95-25.95 20.5-25.95Q20.5-23.25 19.23-21.13 17.95-19 15.7-17.78 13.45-16.55 10.65-16.55ZM11.15 0L6.3 0 6.3-3.95 11.15-3.95 11.15 0ZM11.15-16.3L6.3-16.3 6.3-20.25 11.15-20.25 11.15-16.3ZM21-9.35L16.45-9.35 16.45-10.55 21-10.55 21-9.35ZM21-10.5L16.45-10.5Q16.45-13.25 15.05-14.78 13.65-16.3 11.15-16.3L11.15-16.3 11.15-20Q13.95-20 16.2-18.75 18.45-17.5 19.73-15.35 21-13.2 21-10.5L21-10.5ZM10.65-31.3L6.3-31.3 6.3-35.25 10.65-35.25 10.65-31.3ZM20.5-25.9L20.5-25.9 15.95-25.9Q15.95-28.5 14.55-29.9 13.15-31.3 10.65-31.3L10.65-31.3 10.65-35.25Q13.55-35.25 15.78-34.08 18-32.9 19.25-30.78 20.5-28.65 20.5-25.9ZM16.45-9.4L21-9.4Q21-6.6 19.75-4.5 18.5-2.4 16.28-1.2 14.05 0 11.15 0L11.15 0 11.15-3.95Q13.65-3.95 15.05-5.38 16.45-6.8 16.45-9.4L16.45-9.4ZM7.55 0L3 0 3-35.25 7.55-35.25 7.55 0ZM30.8 0L26.25 0 26.25-25.25 30.8-25.25 30.8 0ZM30.8-16.9L28.75-16.9Q28.75-19.45 29.6-21.48 30.45-23.5 31.92-24.65 33.4-25.8 35.2-25.8L35.2-25.8 34.8-21.55Q33.05-21.55 31.92-20.23 30.8-18.9 30.8-16.9L30.8-16.9ZM39.35-24.2L37.8-20.4Q37.2-20.9 36.37-21.23 35.55-21.55 34.8-21.55L34.8-21.55 35.2-25.8Q36.35-25.8 37.45-25.38 38.55-24.95 39.35-24.2L39.35-24.2ZM56.19-25.25L60.74-25.25 60.74 0 56.19 0 56.19-25.25ZM42.14-25.25L46.69-25.25 46.69-8.05 42.14-8.05 42.14-25.25ZM42.14-8.05L46.69-8.05Q46.69-5.95 48.02-4.63 49.34-3.3 51.39-3.3L51.39-3.3 50.24 0.75Q47.89 0.75 46.07-0.4 44.24-1.55 43.19-3.55 42.14-5.55 42.14-8.05L42.14-8.05ZM56.19-8.2L58.19-8.2Q58.19-5.65 57.17-3.63 56.14-1.6 54.32-0.43 52.49 0.75 50.24 0.75L50.24 0.75 51.39-3.3Q53.49-3.3 54.84-4.65 56.19-6 56.19-8.2L56.19-8.2ZM71.29 0L66.74 0 66.74-25.25 71.29-25.25 71.29 0ZM85.34 0L80.79 0 80.79-17.2 85.34-17.2 85.34 0ZM85.34-17.2L80.79-17.2Q80.79-19.3 79.49-20.63 78.19-21.95 76.14-21.95L76.14-21.95 77.29-26Q79.59-26 81.42-24.85 83.24-23.7 84.29-21.7 85.34-19.7 85.34-17.2L85.34-17.2ZM71.29-17.1L69.29-17.1Q69.29-19.65 70.34-21.68 71.39-23.7 73.19-24.85 74.99-26 77.29-26L77.29-26 76.14-21.95Q73.99-21.95 72.64-20.6 71.29-19.25 71.29-17.1L71.29-17.1ZM107.84-8.95L103.29-8.95 103.29-16.3 107.84-16.3 107.84-8.95ZM93.79-8.95L89.24-8.95 89.24-16.3 93.79-16.3 93.79-8.95ZM98.69-22.05L98.39-22.05 98.39-26 98.69-26 98.69-22.05ZM98.69 0.75L98.39 0.75 98.39-3.2 98.69-3.2 98.69 0.75ZM93.79-16.25L89.24-16.25Q89.24-19.05 90.47-21.25 91.69-23.45 93.77-24.73 95.84-26 98.49-26L98.49-26 98.49-22.05Q96.29-22.05 95.04-20.55 93.79-19.05 93.79-16.25L93.79-16.25ZM107.84-16.25L107.84-16.25 103.29-16.25Q103.29-19.05 102.07-20.55 100.84-22.05 98.59-22.05L98.59-22.05 98.59-26Q101.24-26 103.32-24.73 105.39-23.45 106.62-21.25 107.84-19.05 107.84-16.25ZM89.24-9L89.24-9 93.79-9Q93.79-6.25 95.04-4.73 96.29-3.2 98.49-3.2L98.49-3.2 98.49 0.75Q95.84 0.75 93.77-0.53 91.69-1.8 90.47-4 89.24-6.2 89.24-9ZM103.29-9L107.84-9Q107.84-6.2 106.62-4 105.39-1.8 103.32-0.53 101.24 0.75 98.59 0.75L98.59 0.75 98.59-3.2Q100.84-3.2 102.07-4.73 103.29-6.25 103.29-9L103.29-9Z" opacity="1" transform="matrix(1,0,0,1,0,0)" fill="#505050" class="wordmark-text-0" data-fill-palette-color="primary" id="text-0"></path></svg></g></svg></g><g transform="matrix(1,0,0,1,0,103.73759235823519)"><svg viewBox="0 0 244.43135999999998 37.56914641366223" height="37.56914641366223" width="244.43135999999998"><g transform="matrix(1,0,0,1,0,0)"><svg width="244.43135999999998" viewBox="0.75 -31.7 237.12 36.45" height="37.56914641366223" data-palette-color="#505050"><path d="M9.35-1.25L9.35-1.25Q4.95 2.15 2.9 2.15L2.9 2.15Q1.8 2.15 1.28 1.07 0.75 0 0.75-1.25L0.75-1.25Q0.75-3.65 2.78-8.45 4.8-13.25 6.65-13.25L6.65-13.25Q7.6-13.25 8.28-9.5 8.95-5.75 9.65-4.05L9.65-4.05Q13.05-7.65 19.5-16.05L19.5-16.05Q27.6-26.7 30.25-27.7L30.25-27.7Q31.15-28.05 32.1-28.05 33.05-28.05 33.68-27.65 34.3-27.25 34.3-26.65L34.3-26.65Q34.3-25.8 32.85-25.65L32.85-25.65Q31.1-24.7 27.45-21.05L27.45-21.05Q23.8-17.5 21.6-14.4L21.6-14.4Q16.25-6.95 10.6-2.25L10.6-2.25Q13.4 1.9 19.4 1.9L19.4 1.9Q20.05 1.9 21.35 1.8L21.35 1.8Q35.25 0.5 41.05-10.25L41.05-10.25Q43.4-14.55 43.4-18.75 43.4-22.95 40.35-26.3L40.35-26.3Q37.9-29.05 35.02-29.7 32.15-30.35 29.15-30.35L29.15-30.35Q21.45-30.35 14.95-26.8L14.95-26.8Q8.1-23.05 8.1-18.4L8.1-18.4Q8.1-17.15 8.78-16.35 9.45-15.55 9.7-15.45L9.7-15.45 9.4-15.45Q8.1-15.7 7.1-16.75L7.1-16.75Q6-18.05 6-19.5L6-19.5Q6-24.5 12.28-28.1 18.55-31.7 27-31.7L27-31.7Q30.9-31.7 35-30.8 39.1-29.9 42.45-26.5L42.45-26.5Q46.3-22.5 46.3-17.45L46.3-17.45Q46.3-13.7 44.1-9.7L44.1-9.7Q40.3-2.8 32.75 0.4L32.75 0.4Q26.7 2.95 19.7 2.95 12.7 2.95 9.35-1.25ZM2.55-1.45L2.55-1.45Q2.55 0.1 3.15 1.25L3.15 1.25Q5.3 0.3 8.35-2.7L8.35-2.7Q6.9-5.1 6.53-6.48 6.15-7.85 6-10.1L6-10.1Q2.55-5.15 2.55-1.45ZM9.7-15.45L9.7-15.45Q9.75-15.45 9.8-15.5L9.8-15.5Q9.8-15.4 9.78-15.4 9.75-15.4 9.7-15.45ZM62.65-14.95L62.65-14.95 63.35-15.1Q63.9-15.1 64.4-14.65 64.9-14.2 64.9-13.95 64.9-13.7 61.8-9.13 58.7-4.55 58.7-2.75L58.7-2.75Q58.7-2.6 58.75-2.45L58.75-2.45Q59-1.3 59.85-1.3L59.85-1.3Q62.45-1.3 69.35-9.9L69.35-9.9Q69.5-10.1 69.7-10.1 69.9-10.1 69.9-9.73 69.9-9.35 69.45-8.75L69.45-8.75Q63.05-0.2 59.7-0.2L59.7-0.2Q59.25-0.2 58.85-0.35L58.85-0.35Q56.65-1.2 56.65-3.65L56.65-3.65Q56.65-4.5 56.85-5.35L56.85-5.35 53.75-2.35Q50.8 0.25 49.47 0.25 48.15 0.25 46.95-0.6L46.95-0.6Q45.6-1.6 45.6-3.25L45.6-3.25Q45.6-6.9 50.7-11.98 55.8-17.05 60.05-17.05L60.05-17.05Q61.7-17.05 62.25-15.9L62.25-15.9Q62.4-15.5 62.5-15.23 62.6-14.95 62.65-14.95ZM47.7-2.65L47.7-2.65Q47.7-0.85 48.95-0.85L48.95-0.85Q51.85-0.85 56.85-7.2L56.85-7.2 62.15-14.5Q61.75-15.2 60.85-15.2L60.85-15.2Q57.8-15.2 52.75-10.48 47.7-5.75 47.7-2.65ZM79.7-16.1L79.7-16.1 86.9-16.2Q87.05-16.1 87.05-16.05L87.05-16.05Q87.05-15.6 80.82-14.8 74.6-14 74.1-13.85L74.1-13.85Q73.15-13 70.6-8.78 68.05-4.55 68.05-2.6L68.05-2.6Q68.05-0.75 70.6-0.75L70.6-0.75Q71.8-0.75 73.75-1.5 75.7-2.25 76.75-2.9L76.75-2.9Q79.55-4.65 82.75-8.05L82.75-8.05Q83.45-8.75 83.7-8.75L83.7-8.75Q83.85-8.75 83.85-8.45 83.85-8.15 83.1-7.25L83.1-7.25Q80.5-4.05 77.25-2.1L77.25-2.1Q73.35 0.3 69.8 0.3L69.8 0.3Q68.25 0.3 67.27-0.38 66.3-1.05 66.3-3.1 66.3-5.15 68.1-8.72 69.9-12.3 70.85-14.05L70.85-14.05Q70.15-13.9 69.65-13.9L69.65-13.9Q68.2-13.9 68.2-15.05L68.2-15.05Q68.2-15.9 69.4-16.25L69.4-16.25Q69.55-16.25 69.85-16.3L69.85-16.3 72.75-16.3Q73.65-17.45 74.8-18.95L74.8-18.95Q76.2-20.75 76.7-20.75 77.2-20.75 77.95-20.35 78.7-19.95 78.7-19.4 78.7-18.85 76.3-16.15L76.3-16.15Q77.6-16.1 79.7-16.1ZM98.09-14.95L98.09-14.95 98.79-15.1Q99.34-15.1 99.84-14.65 100.34-14.2 100.34-13.95 100.34-13.7 97.24-9.13 94.14-4.55 94.14-2.75L94.14-2.75Q94.14-2.6 94.19-2.45L94.19-2.45Q94.44-1.3 95.29-1.3L95.29-1.3Q97.89-1.3 104.79-9.9L104.79-9.9Q104.94-10.1 105.14-10.1 105.34-10.1 105.34-9.73 105.34-9.35 104.89-8.75L104.89-8.75Q98.49-0.2 95.14-0.2L95.14-0.2Q94.69-0.2 94.29-0.35L94.29-0.35Q92.09-1.2 92.09-3.65L92.09-3.65Q92.09-4.5 92.29-5.35L92.29-5.35 89.19-2.35Q86.24 0.25 84.92 0.25 83.59 0.25 82.39-0.6L82.39-0.6Q81.04-1.6 81.04-3.25L81.04-3.25Q81.04-6.9 86.14-11.98 91.24-17.05 95.49-17.05L95.49-17.05Q97.14-17.05 97.69-15.9L97.69-15.9Q97.84-15.5 97.94-15.23 98.04-14.95 98.09-14.95ZM83.14-2.65L83.14-2.65Q83.14-0.85 84.39-0.85L84.39-0.85Q87.29-0.85 92.29-7.2L92.29-7.2 97.59-14.5Q97.19-15.2 96.29-15.2L96.29-15.2Q93.24-15.2 88.19-10.48 83.14-5.75 83.14-2.65ZM151.54-21.4L151.54-21.4Q149.69-20.65 148.36-20.65 147.04-20.65 147.04-21.2L147.04-21.2Q147.04-21.55 148.51-21.6 149.99-21.65 150.64-21.95L150.64-21.95Q152.54-22.95 152.54-24.9L152.54-24.9Q152.54-25.9 151.99-27L151.99-27Q150.39-29.85 144.24-29.85L144.24-29.85Q140.69-29.85 137.14-28.78 133.59-27.7 131.19-25.48 128.79-23.25 128.79-21.35L128.79-21.35Q128.79-18.45 134.54-17.1L134.54-17.1 140.44-16Q143.99-15.35 145.74-14.2L145.74-14.2Q148.04-12.8 148.04-10.2L148.04-10.2Q148.04-9.15 147.69-7.95L147.69-7.95Q146.09-2.55 139.44 0.3L139.44 0.3Q133.89 2.75 126.34 2.75L126.34 2.75Q124.19 2.75 122.59 2.55L122.59 2.55Q124.19 3.45 126.79 4.1L126.79 4.1Q126.99 4.15 126.99 4.3L126.99 4.3Q126.99 4.75 125.94 4.75L125.94 4.75Q123.89 4.75 120.84 2.3L120.84 2.3Q116.69 1.65 114.64 0L114.64 0Q113.34-1.05 112.24-3.1 111.14-5.15 111.14-6.8 111.14-8.45 111.79-9.55L111.79-9.55Q113.29-12.2 115.59-12.2L115.59-12.2Q117.34-12.2 117.64-9.25L117.64-9.25Q118.34-3.55 118.59-2.75L118.59-2.75Q119.34-0.3 121.14 1.4L121.14 1.4Q123.24 1.85 125.69 1.85L125.69 1.85Q131.09 1.85 136.29-0.3 141.49-2.45 143.79-6.4L143.79-6.4Q144.74-7.95 144.74-9.15L144.74-9.15Q144.74-11.5 140.59-12.8L140.59-12.8 131.79-14.8Q129.09-15.45 127.46-16.95 125.84-18.45 125.84-20.4L125.84-20.4Q125.84-23.4 129.59-26.4L129.59-26.4Q132.44-28.7 136.56-29.98 140.69-31.25 144.66-31.25 148.64-31.25 151.24-30.1L151.24-30.1Q154.59-28.55 154.59-25.58 154.59-22.6 151.54-21.4ZM119.34 0.9L119.34 0.9Q116.44-2.3 115.64-7.85L115.64-7.85Q115.19-11 114.79-11 114.39-11 114.04-10.78 113.69-10.55 113.34-9.8 112.99-9.05 112.99-7.85L112.99-7.85Q112.99-4 115.69-1.25L115.69-1.25Q117.04 0.15 119.34 0.9ZM153.19 0.65L153.19 0.65Q152.64 0.65 152.19 0.5L152.19 0.5Q148.99-0.4 148.99-3.1L148.99-3.1Q148.99-6.6 153.39-11.2 157.79-15.8 161.29-15.8L161.29-15.8Q162.44-15.8 163.16-15.18 163.89-14.55 163.89-13.48 163.89-12.4 163.24-11.23 162.59-10.05 161.29-10.05 159.99-10.05 159.99-10.85L159.99-10.85Q159.99-11.4 160.66-12.53 161.34-13.65 161.34-13.73 161.34-13.8 161.19-13.8L161.19-13.8Q159.79-13.65 157.36-11.8 154.94-9.95 154.04-8.7L154.04-8.7 152.09-5.85Q151.59-5.05 151.36-3.95 151.14-2.85 151.14-2.3 151.14-1.75 151.76-1.05 152.39-0.35 153.54-0.35L153.54-0.35Q156.04-0.35 159.74-3.28 163.44-6.2 165.44-8.85L165.44-8.85Q165.69-9.15 166.04-9.15 166.39-9.15 166.39-8.95 166.39-8.75 166.14-8.45L166.14-8.45Q163.39-4.8 159.56-2.08 155.74 0.65 153.19 0.65ZM174.38-20.4Q175.13-20.4 175.81-19.93 176.48-19.45 176.48-18.8 176.48-18.15 175.86-17.68 175.23-17.2 174.48-17.2 173.73-17.2 173.11-17.75 172.48-18.3 172.48-19L172.48-19Q172.48-20.4 174.38-20.4L174.38-20.4ZM165.33 0.55L165.33 0.55Q162.78 0.55 162.78-2.75L162.78-2.75Q162.78-5.45 165.73-10.23 168.68-15 170.48-15.05L170.48-15.05Q170.98-15.05 171.61-14.65 172.23-14.25 172.23-13.85L172.23-13.85Q171.98-13.5 171.63-13.08 171.28-12.65 170.88-12.15 170.48-11.65 169.78-10.73 169.08-9.8 168.43-8.95L168.43-8.95Q164.68-4.1 164.68-2.27 164.68-0.45 165.93-0.45L165.93-0.45Q166.98-0.45 168.78-1.6L168.78-1.6Q172.98-4.2 175.43-7.3L175.43-7.3Q176.33-8.45 176.66-8.45 176.98-8.45 176.98-8.05 176.98-7.65 175.83-6.45 174.68-5.25 174.01-4.55 173.33-3.85 173.08-3.63 172.83-3.4 172.16-2.78 171.48-2.15 171.13-1.9 170.78-1.65 170.13-1.15 169.48-0.65 168.98-0.43 168.48-0.2 167.83 0.1L167.83 0.1Q166.78 0.55 165.33 0.55ZM177.38 0.65L177.38 0.65Q176.83 0.65 176.38 0.5L176.38 0.5Q173.18-0.4 173.18-3.1L173.18-3.1Q173.18-6.6 177.58-11.2 181.98-15.8 185.48-15.8L185.48-15.8Q186.63-15.8 187.36-15.18 188.08-14.55 188.08-13.65L188.08-13.65Q188.08-10.85 183.86-8.3 179.63-5.75 176.98-5.75L176.98-5.75Q176.58-5.75 176.28-5.85L176.28-5.85Q175.53-4.5 175.53-3L175.53-3Q175.53-0.4 178.01-0.4 180.48-0.4 184.43-3.75L184.43-3.75Q187.48-6.2 189.63-8.95L189.63-8.95Q190.08-9.55 190.41-9.55 190.73-9.55 190.73-9.25 190.73-8.95 190.33-8.4L190.33-8.4Q187.63-4.85 183.83-2.1 180.03 0.65 177.38 0.65ZM186.83-13.75L186.83-13.75Q186.83-14.35 185.56-14.35 184.28-14.35 181.93-12.4L181.93-12.4Q178.78-9.8 177.03-6.95L177.03-6.95Q177.33-6.85 177.68-6.85L177.68-6.85Q179.58-6.85 182.76-8.88 185.93-10.9 186.73-13.3L186.73-13.3Q186.83-13.55 186.83-13.75ZM195.73-15.8L195.73-15.8Q197.08-15.8 197.08-14.75L197.08-14.75Q197.08-14.45 196.93-14.15L196.93-14.15Q192.43-7.9 191.53-4.7L191.53-4.7Q203.18-16.35 205.68-16.35L205.68-16.35Q205.93-16.4 206.13-16.4L206.13-16.4Q207.53-16.4 207.53-15.15L207.53-15.15Q207.53-14.9 207.43-14.65 207.33-14.4 205.43-11.95L205.43-11.95Q203.23-9.35 201.7-6.95 200.18-4.55 200.18-2.95 200.18-1.35 200.88-1.35L200.88-1.35Q203.08-1.35 208.53-7.4L208.53-7.4Q208.63-7.5 208.88-7.85L208.88-7.85Q209.63-8.75 209.78-8.75 209.93-8.75 209.93-8.25 209.93-7.75 209.23-6.95L209.23-6.95Q203.03 0.1 200.43 0.1L200.43 0.1Q197.98 0.1 197.98-2.6 197.98-5.3 199.98-8.8L199.98-8.8 203.18-14Q199.78-11.5 197.13-8.53 194.48-5.55 192.3-2.75 190.13 0.05 189.78 0.05L189.78 0.05Q189.03 0.05 188.6-0.58 188.18-1.2 188.18-2.13 188.18-3.05 188.83-4.6 189.48-6.15 190.48-8.35L190.48-8.35 187.48-5.2Q186.38-4.1 186.1-4.1 185.83-4.1 185.83-4.42 185.83-4.75 186.23-5.15L186.23-5.15Q188.08-7 189.43-8.7L189.43-8.7Q190.73-10.4 194.78-15.2L194.78-15.2Q195.23-15.8 195.73-15.8ZM211.63 0.65L211.63 0.65Q211.08 0.65 210.63 0.5L210.63 0.5Q207.43-0.4 207.43-3.1L207.43-3.1Q207.43-6.6 211.83-11.2 216.23-15.8 219.73-15.8L219.73-15.8Q220.88-15.8 221.6-15.18 222.33-14.55 222.33-13.48 222.33-12.4 221.68-11.23 221.03-10.05 219.73-10.05 218.43-10.05 218.43-10.85L218.43-10.85Q218.43-11.4 219.1-12.53 219.78-13.65 219.78-13.73 219.78-13.8 219.63-13.8L219.63-13.8Q218.23-13.65 215.8-11.8 213.38-9.95 212.48-8.7L212.48-8.7 210.53-5.85Q210.03-5.05 209.8-3.95 209.58-2.85 209.58-2.3 209.58-1.75 210.2-1.05 210.83-0.35 211.98-0.35L211.98-0.35Q214.48-0.35 218.18-3.28 221.88-6.2 223.88-8.85L223.88-8.85Q224.13-9.15 224.48-9.15 224.83-9.15 224.83-8.95 224.83-8.75 224.58-8.45L224.58-8.45Q221.83-4.8 218-2.08 214.18 0.65 211.63 0.65ZM224.52 0.65L224.52 0.65Q223.97 0.65 223.52 0.5L223.52 0.5Q220.32-0.4 220.32-3.1L220.32-3.1Q220.32-6.6 224.72-11.2 229.12-15.8 232.62-15.8L232.62-15.8Q233.77-15.8 234.5-15.18 235.22-14.55 235.22-13.65L235.22-13.65Q235.22-10.85 231-8.3 226.77-5.75 224.12-5.75L224.12-5.75Q223.72-5.75 223.42-5.85L223.42-5.85Q222.67-4.5 222.67-3L222.67-3Q222.67-0.4 225.15-0.4 227.62-0.4 231.57-3.75L231.57-3.75Q234.62-6.2 236.77-8.95L236.77-8.95Q237.22-9.55 237.55-9.55 237.87-9.55 237.87-9.25 237.87-8.95 237.47-8.4L237.47-8.4Q234.77-4.85 230.97-2.1 227.17 0.65 224.52 0.65ZM233.97-13.75L233.97-13.75Q233.97-14.35 232.7-14.35 231.42-14.35 229.07-12.4L229.07-12.4Q225.92-9.8 224.17-6.95L224.17-6.95Q224.47-6.85 224.82-6.85L224.82-6.85Q226.72-6.85 229.9-8.88 233.07-10.9 233.87-13.3L233.87-13.3Q233.97-13.55 233.97-13.75Z" opacity="1" transform="matrix(1,0,0,1,0,0)" fill="#505050" class="slogan-text-1" data-fill-palette-color="secondary" id="text-1"></path></svg></g></svg></g></svg></g></svg></g></svg></g></svg></g></svg></g><g><path d="M245.816 0c68.262 0 123.6 55.338 123.6 123.6 0 68.262-55.338 123.6-123.6 123.6-37.486 0-71.075-16.688-93.743-43.04l5.051 0c21.918 24.116 53.536 39.256 88.692 39.256 66.172 0 119.816-53.643 119.815-119.816 0-66.172-53.643-119.816-119.815-119.816-35.155 0-66.774 15.14-88.692 39.256h-5.051c22.667-26.352 56.256-43.04 93.743-43.04z" fill="#505050" stroke="transparent" data-fill-palette-color="tertiary"></path></g></svg></g><defs></defs></svg><rect width="395.52" height="247.2" fill="none" stroke="none" visibility="hidden"></rect></g></svg></g></svg>